<svg xmlns="http://www.w3.org/2000/svg" xmlns:xlink="http://www.w3.org/1999/xlink" width="350" zoomAndPan="magnify" viewBox="0 0 262.5 37.5" height="50" preserveAspectRatio="xMidYMid meet" version="1.0"><defs><g/><clipPath id="12d11119ed"><path d="M 3.167969 4.34375 L 57.9375 4.34375 L 57.9375 33.210938 L 3.167969 33.210938 Z M 3.167969 4.34375 " clip-rule="nonzero"/></clipPath></defs><g clip-path="url(#12d11119ed)"><path fill="#eeeeee" d="M 53.839844 19.601562 C 53.347656 19.324219 52.839844 19.082031 52.316406 18.867188 C 53.445312 17.640625 54.136719 16.003906 54.136719 14.210938 C 54.136719 10.410156 51.046875 7.320312 47.246094 7.320312 C 43.445312 7.320312 40.355469 10.410156 40.355469 14.210938 C 40.355469 16.007812 41.046875 17.644531 42.179688 18.871094 C 41.359375 19.203125 40.570312 19.617188 39.824219 20.105469 C 38.644531 19.308594 37.390625 18.671875 36.09375 18.199219 C 37.625 16.734375 38.582031 14.671875 38.582031 12.390625 C 38.582031 7.953125 34.972656 4.34375 30.539062 4.34375 C 26.101562 4.34375 22.492188 7.953125 22.492188 12.390625 C 22.492188 14.671875 23.449219 16.734375 24.980469 18.199219 C 23.683594 18.671875 22.429688 19.308594 21.25 20.105469 C 20.507812 19.617188 19.714844 19.203125 18.894531 18.871094 C 20.027344 17.644531 20.71875 16.007812 20.71875 14.210938 C 20.71875 10.410156 17.628906 7.320312 13.828125 7.320312 C 10.03125 7.320312 6.9375 10.410156 6.9375 14.210938 C 6.9375 16.003906 7.628906 17.640625 8.757812 18.871094 C 8.289062 19.058594 7.832031 19.273438 7.382812 19.519531 C 4.796875 20.925781 3.1875 23.636719 3.1875 26.585938 L 3.1875 28.476562 C 3.1875 29.367188 3.910156 30.085938 4.796875 30.085938 L 17.667969 30.085938 L 17.667969 31.695312 C 17.667969 32.582031 18.386719 33.304688 19.277344 33.304688 L 41.796875 33.304688 C 42.6875 33.304688 43.40625 32.582031 43.40625 31.695312 L 43.40625 30.085938 L 56.277344 30.085938 C 57.164062 30.085938 57.886719 29.367188 57.886719 28.476562 L 57.886719 26.585938 C 57.886719 23.679688 56.335938 21 53.839844 19.601562 Z M 17.667969 26.777344 L 17.667969 26.867188 L 6.40625 26.867188 L 6.40625 26.585938 C 6.40625 24.816406 7.371094 23.1875 8.921875 22.34375 C 11.980469 20.679688 15.804688 20.652344 18.933594 22.457031 C 18.117188 23.726562 17.667969 25.222656 17.667969 26.777344 Z M 30.539062 7.5625 C 33.199219 7.5625 35.363281 9.726562 35.363281 12.390625 C 35.363281 15.050781 33.199219 17.214844 30.539062 17.214844 C 27.875 17.214844 25.710938 15.050781 25.710938 12.390625 C 25.710938 9.726562 27.875 7.5625 30.539062 7.5625 Z M 40.191406 30.085938 L 36.972656 30.085938 L 36.972656 28.476562 C 36.972656 27.589844 36.25 26.867188 35.363281 26.867188 C 34.476562 26.867188 33.753906 27.589844 33.753906 28.476562 L 33.753906 30.085938 L 27.320312 30.085938 L 27.320312 28.476562 C 27.320312 27.589844 26.597656 26.867188 25.710938 26.867188 C 24.824219 26.867188 24.101562 27.589844 24.101562 28.476562 L 24.101562 30.085938 L 20.882812 30.085938 L 20.882812 26.777344 C 20.882812 25.199219 21.664062 23.71875 22.96875 22.824219 C 27.621094 19.636719 33.445312 19.632812 38.105469 22.824219 C 39.410156 23.71875 40.191406 25.195312 40.191406 26.777344 Z M 54.667969 26.867188 L 43.40625 26.867188 C 43.394531 26.78125 43.539062 24.636719 42.140625 22.457031 C 45.292969 20.636719 49.171875 20.671875 52.265625 22.40625 C 53.746094 23.238281 54.667969 24.839844 54.667969 26.585938 Z M 54.667969 26.867188 " fill-opacity="1" fill-rule="nonzero"/></g><g fill="#eeeeee" fill-opacity="1"><g transform="translate(60.241635, 24.376773)"><g><path d="M 7.28125 -1.9375 C 8.90625 -1.9375 10.035156 -2.753906 10.671875 -4.390625 L 13.03125 -3.5 C 12.519531 -2.257812 11.773438 -1.332031 10.796875 -0.71875 C 9.816406 -0.113281 8.644531 0.1875 7.28125 0.1875 C 5.207031 0.1875 3.601562 -0.398438 2.46875 -1.578125 C 1.332031 -2.753906 0.765625 -4.398438 0.765625 -6.515625 C 0.765625 -8.628906 1.3125 -10.253906 2.40625 -11.390625 C 3.5 -12.523438 5.082031 -13.09375 7.15625 -13.09375 C 8.675781 -13.09375 9.910156 -12.785156 10.859375 -12.171875 C 11.804688 -11.566406 12.472656 -10.675781 12.859375 -9.5 L 10.484375 -8.859375 C 10.285156 -9.503906 9.890625 -10.015625 9.296875 -10.390625 C 8.703125 -10.773438 8.007812 -10.96875 7.21875 -10.96875 C 6 -10.96875 5.070312 -10.585938 4.4375 -9.828125 C 3.800781 -9.078125 3.484375 -7.972656 3.484375 -6.515625 C 3.484375 -5.023438 3.804688 -3.890625 4.453125 -3.109375 C 5.109375 -2.328125 6.050781 -1.9375 7.28125 -1.9375 Z M 7.28125 -1.9375 "/></g></g></g><g fill="#eeeeee" fill-opacity="1"><g transform="translate(73.779506, 24.376773)"><g><path d="M 10.71875 -4.96875 C 10.71875 -3.351562 10.269531 -2.085938 9.375 -1.171875 C 8.488281 -0.265625 7.257812 0.1875 5.6875 0.1875 C 4.144531 0.1875 2.929688 -0.269531 2.046875 -1.1875 C 1.171875 -2.101562 0.734375 -3.363281 0.734375 -4.96875 C 0.734375 -6.5625 1.171875 -7.8125 2.046875 -8.71875 C 2.929688 -9.632812 4.160156 -10.09375 5.734375 -10.09375 C 7.359375 -10.09375 8.59375 -9.648438 9.4375 -8.765625 C 10.289062 -7.878906 10.71875 -6.613281 10.71875 -4.96875 Z M 8.03125 -4.96875 C 8.03125 -6.144531 7.835938 -7 7.453125 -7.53125 C 7.066406 -8.0625 6.507812 -8.328125 5.78125 -8.328125 C 4.21875 -8.328125 3.4375 -7.207031 3.4375 -4.96875 C 3.4375 -3.863281 3.625 -3.019531 4 -2.4375 C 4.382812 -1.863281 4.9375 -1.578125 5.65625 -1.578125 C 7.238281 -1.578125 8.03125 -2.707031 8.03125 -4.96875 Z M 8.03125 -4.96875 "/></g></g></g><g fill="#eeeeee" fill-opacity="1"><g transform="translate(85.230403, 24.376773)"><g><path d="M 7.140625 0 L 7.140625 -5.5625 C 7.140625 -7.300781 6.640625 -8.171875 5.640625 -8.171875 C 5.117188 -8.171875 4.691406 -7.90625 4.359375 -7.375 C 4.035156 -6.84375 3.875 -6.15625 3.875 -5.3125 L 3.875 0 L 1.3125 0 L 1.3125 -7.6875 C 1.3125 -8.21875 1.300781 -8.648438 1.28125 -8.984375 C 1.269531 -9.328125 1.253906 -9.632812 1.234375 -9.90625 L 3.6875 -9.90625 C 3.707031 -9.789062 3.734375 -9.476562 3.765625 -8.96875 C 3.796875 -8.46875 3.8125 -8.125 3.8125 -7.9375 L 3.84375 -7.9375 C 4.164062 -8.695312 4.5625 -9.242188 5.03125 -9.578125 C 5.5 -9.921875 6.066406 -10.09375 6.734375 -10.09375 C 8.242188 -10.09375 9.160156 -9.375 9.484375 -7.9375 L 9.546875 -7.9375 C 9.878906 -8.707031 10.28125 -9.257812 10.75 -9.59375 C 11.21875 -9.925781 11.816406 -10.09375 12.546875 -10.09375 C 13.503906 -10.09375 14.238281 -9.765625 14.75 -9.109375 C 15.257812 -8.453125 15.515625 -7.515625 15.515625 -6.296875 L 15.515625 0 L 12.953125 0 L 12.953125 -5.5625 C 12.953125 -7.300781 12.453125 -8.171875 11.453125 -8.171875 C 10.953125 -8.171875 10.539062 -7.925781 10.21875 -7.4375 C 9.894531 -6.945312 9.722656 -6.273438 9.703125 -5.421875 L 9.703125 0 Z M 7.140625 0 "/></g></g></g><g fill="#eeeeee" fill-opacity="1"><g transform="translate(101.898733, 24.376773)"><g><path d="M 10.6875 -5 C 10.6875 -3.34375 10.351562 -2.0625 9.6875 -1.15625 C 9.03125 -0.257812 8.097656 0.1875 6.890625 0.1875 C 6.191406 0.1875 5.582031 0.0351562 5.0625 -0.265625 C 4.550781 -0.566406 4.15625 -1.003906 3.875 -1.578125 L 3.828125 -1.578125 C 3.859375 -1.390625 3.875 -0.832031 3.875 0.09375 L 3.875 3.890625 L 1.3125 3.890625 L 1.3125 -7.625 C 1.3125 -8.5625 1.285156 -9.320312 1.234375 -9.90625 L 3.734375 -9.90625 C 3.765625 -9.789062 3.789062 -9.570312 3.8125 -9.25 C 3.832031 -8.925781 3.84375 -8.609375 3.84375 -8.296875 L 3.875 -8.296875 C 4.457031 -9.503906 5.515625 -10.109375 7.046875 -10.109375 C 8.203125 -10.109375 9.097656 -9.664062 9.734375 -8.78125 C 10.367188 -7.894531 10.6875 -6.632812 10.6875 -5 Z M 8 -5 C 8 -7.21875 7.316406 -8.328125 5.953125 -8.328125 C 5.273438 -8.328125 4.753906 -8.023438 4.390625 -7.421875 C 4.023438 -6.828125 3.84375 -5.992188 3.84375 -4.921875 C 3.84375 -3.859375 4.023438 -3.035156 4.390625 -2.453125 C 4.753906 -1.867188 5.269531 -1.578125 5.9375 -1.578125 C 7.3125 -1.578125 8 -2.71875 8 -5 Z M 8 -5 "/></g></g></g><g fill="#eeeeee" fill-opacity="1"><g transform="translate(113.349631, 24.376773)"><g><path d="M 3.59375 0.1875 C 2.632812 0.1875 1.882812 -0.0703125 1.34375 -0.59375 C 0.8125 -1.113281 0.546875 -1.847656 0.546875 -2.796875 C 0.546875 -3.828125 0.878906 -4.609375 1.546875 -5.140625 C 2.210938 -5.679688 3.179688 -5.957031 4.453125 -5.96875 L 6.59375 -6 L 6.59375 -6.515625 C 6.59375 -7.160156 6.476562 -7.640625 6.25 -7.953125 C 6.03125 -8.265625 5.660156 -8.421875 5.140625 -8.421875 C 4.671875 -8.421875 4.320312 -8.3125 4.09375 -8.09375 C 3.875 -7.875 3.738281 -7.515625 3.6875 -7.015625 L 1 -7.15625 C 1.164062 -8.113281 1.601562 -8.84375 2.3125 -9.34375 C 3.03125 -9.84375 4.007812 -10.09375 5.25 -10.09375 C 6.5 -10.09375 7.460938 -9.78125 8.140625 -9.15625 C 8.828125 -8.539062 9.171875 -7.664062 9.171875 -6.53125 L 9.171875 -2.9375 C 9.171875 -2.375 9.234375 -1.988281 9.359375 -1.78125 C 9.484375 -1.570312 9.691406 -1.46875 9.984375 -1.46875 C 10.171875 -1.46875 10.359375 -1.484375 10.546875 -1.515625 L 10.546875 -0.125 C 10.390625 -0.09375 10.25 -0.0625 10.125 -0.03125 C 10.007812 0 9.890625 0.0234375 9.765625 0.046875 C 9.640625 0.0664062 9.507812 0.0820312 9.375 0.09375 C 9.238281 0.101562 9.082031 0.109375 8.90625 0.109375 C 8.25 0.109375 7.765625 -0.046875 7.453125 -0.359375 C 7.148438 -0.679688 6.96875 -1.148438 6.90625 -1.765625 L 6.859375 -1.765625 C 6.140625 -0.460938 5.050781 0.1875 3.59375 0.1875 Z M 6.59375 -4.59375 L 5.28125 -4.5625 C 4.675781 -4.539062 4.25 -4.476562 4 -4.375 C 3.75 -4.269531 3.554688 -4.101562 3.421875 -3.875 C 3.296875 -3.65625 3.234375 -3.363281 3.234375 -3 C 3.234375 -2.53125 3.335938 -2.179688 3.546875 -1.953125 C 3.765625 -1.722656 4.054688 -1.609375 4.421875 -1.609375 C 4.828125 -1.609375 5.195312 -1.71875 5.53125 -1.9375 C 5.863281 -2.15625 6.125 -2.457031 6.3125 -2.84375 C 6.5 -3.238281 6.59375 -3.648438 6.59375 -4.078125 Z M 6.59375 -4.59375 "/></g></g></g><g fill="#eeeeee" fill-opacity="1"><g transform="translate(123.775349, 24.376773)"><g><path d="M 7.734375 0 L 7.734375 -5.5625 C 7.734375 -7.300781 7.140625 -8.171875 5.953125 -8.171875 C 5.335938 -8.171875 4.835938 -7.898438 4.453125 -7.359375 C 4.066406 -6.828125 3.875 -6.144531 3.875 -5.3125 L 3.875 0 L 1.3125 0 L 1.3125 -7.6875 C 1.3125 -8.21875 1.300781 -8.648438 1.28125 -8.984375 C 1.269531 -9.328125 1.253906 -9.632812 1.234375 -9.90625 L 3.6875 -9.90625 C 3.707031 -9.789062 3.734375 -9.476562 3.765625 -8.96875 C 3.796875 -8.46875 3.8125 -8.125 3.8125 -7.9375 L 3.84375 -7.9375 C 4.1875 -8.695312 4.617188 -9.242188 5.140625 -9.578125 C 5.671875 -9.921875 6.300781 -10.09375 7.03125 -10.09375 C 8.082031 -10.09375 8.890625 -9.769531 9.453125 -9.125 C 10.015625 -8.476562 10.296875 -7.535156 10.296875 -6.296875 L 10.296875 0 Z M 7.734375 0 "/></g></g></g><g fill="#eeeeee" fill-opacity="1"><g transform="translate(135.226246, 24.376773)"><g><path d="M 2.59375 3.890625 C 1.976562 3.890625 1.4375 3.847656 0.96875 3.765625 L 0.96875 1.9375 C 1.289062 1.988281 1.585938 2.015625 1.859375 2.015625 C 2.222656 2.015625 2.523438 1.957031 2.765625 1.84375 C 3.003906 1.726562 3.21875 1.535156 3.40625 1.265625 C 3.601562 0.992188 3.820312 0.539062 4.0625 -0.09375 L 0.140625 -9.90625 L 2.859375 -9.90625 L 4.421875 -5.265625 C 4.660156 -4.597656 4.96875 -3.578125 5.34375 -2.203125 L 5.578125 -3.078125 L 6.171875 -5.234375 L 7.640625 -9.90625 L 10.328125 -9.90625 L 6.40625 0.515625 C 5.882812 1.785156 5.335938 2.664062 4.765625 3.15625 C 4.203125 3.644531 3.476562 3.890625 2.59375 3.890625 Z M 2.59375 3.890625 "/></g></g></g><g fill="#eeeeee" fill-opacity="1"><g transform="translate(145.651964, 24.376773)"><g/></g></g><g fill="#eeeeee" fill-opacity="1"><g transform="translate(150.860249, 24.376773)"><g><path d="M 0.828125 -3.53125 C 0.828125 -4.351562 1.070312 -5.082031 1.5625 -5.71875 C 2.0625 -6.363281 2.847656 -6.9375 3.921875 -7.4375 C 3.460938 -8.351562 3.234375 -9.207031 3.234375 -10 C 3.234375 -10.945312 3.53125 -11.675781 4.125 -12.1875 C 4.726562 -12.707031 5.582031 -12.96875 6.6875 -12.96875 C 7.71875 -12.96875 8.53125 -12.722656 9.125 -12.234375 C 9.71875 -11.753906 10.015625 -11.09375 10.015625 -10.25 C 10.015625 -9.78125 9.894531 -9.351562 9.65625 -8.96875 C 9.414062 -8.59375 9.078125 -8.242188 8.640625 -7.921875 C 8.210938 -7.597656 7.472656 -7.191406 6.421875 -6.703125 C 7.023438 -5.640625 7.769531 -4.617188 8.65625 -3.640625 C 9.289062 -4.597656 9.773438 -5.703125 10.109375 -6.953125 L 12.015625 -6.3125 C 11.597656 -4.894531 11.007812 -3.613281 10.25 -2.46875 C 10.78125 -2.019531 11.328125 -1.796875 11.890625 -1.796875 C 12.285156 -1.796875 12.640625 -1.847656 12.953125 -1.953125 L 12.953125 -0.09375 C 12.617188 0.0390625 12.21875 0.109375 11.75 0.109375 C 11.226562 0.109375 10.703125 0.015625 10.171875 -0.171875 C 9.648438 -0.359375 9.171875 -0.632812 8.734375 -1 C 7.691406 -0.207031 6.535156 0.1875 5.265625 0.1875 C 3.859375 0.1875 2.765625 -0.132812 1.984375 -0.78125 C 1.210938 -1.4375 0.828125 -2.351562 0.828125 -3.53125 Z M 7.96875 -10.234375 C 7.96875 -10.578125 7.847656 -10.859375 7.609375 -11.078125 C 7.378906 -11.304688 7.066406 -11.421875 6.671875 -11.421875 C 6.203125 -11.421875 5.84375 -11.285156 5.59375 -11.015625 C 5.351562 -10.753906 5.234375 -10.410156 5.234375 -9.984375 C 5.234375 -9.453125 5.394531 -8.863281 5.71875 -8.21875 C 6.363281 -8.488281 6.820312 -8.71875 7.09375 -8.90625 C 7.375 -9.09375 7.585938 -9.289062 7.734375 -9.5 C 7.890625 -9.71875 7.96875 -9.960938 7.96875 -10.234375 Z M 7.21875 -2.25 C 6.195312 -3.382812 5.363281 -4.535156 4.71875 -5.703125 C 3.675781 -5.210938 3.15625 -4.5 3.15625 -3.5625 C 3.15625 -2.957031 3.351562 -2.472656 3.75 -2.109375 C 4.144531 -1.742188 4.679688 -1.5625 5.359375 -1.5625 C 5.753906 -1.5625 6.113281 -1.632812 6.4375 -1.78125 C 6.757812 -1.925781 7.019531 -2.082031 7.21875 -2.25 Z M 7.21875 -2.25 "/></g></g></g><g fill="#eeeeee" fill-opacity="1"><g transform="translate(164.398119, 24.376773)"><g/></g></g><g fill="#eeeeee" fill-opacity="1"><g transform="translate(169.606404, 24.376773)"><g><path d="M 1.25 0 L 1.25 -12.90625 L 11.390625 -12.90625 L 11.390625 -10.8125 L 3.953125 -10.8125 L 3.953125 -7.578125 L 10.84375 -7.578125 L 10.84375 -5.484375 L 3.953125 -5.484375 L 3.953125 -2.09375 L 11.78125 -2.09375 L 11.78125 0 Z M 1.25 0 "/></g></g></g><g fill="#eeeeee" fill-opacity="1"><g transform="translate(182.109936, 24.376773)"><g><path d="M 7.140625 0 L 7.140625 -5.5625 C 7.140625 -7.300781 6.640625 -8.171875 5.640625 -8.171875 C 5.117188 -8.171875 4.691406 -7.90625 4.359375 -7.375 C 4.035156 -6.84375 3.875 -6.15625 3.875 -5.3125 L 3.875 0 L 1.3125 0 L 1.3125 -7.6875 C 1.3125 -8.21875 1.300781 -8.648438 1.28125 -8.984375 C 1.269531 -9.328125 1.253906 -9.632812 1.234375 -9.90625 L 3.6875 -9.90625 C 3.707031 -9.789062 3.734375 -9.476562 3.765625 -8.96875 C 3.796875 -8.46875 3.8125 -8.125 3.8125 -7.9375 L 3.84375 -7.9375 C 4.164062 -8.695312 4.5625 -9.242188 5.03125 -9.578125 C 5.5 -9.921875 6.066406 -10.09375 6.734375 -10.09375 C 8.242188 -10.09375 9.160156 -9.375 9.484375 -7.9375 L 9.546875 -7.9375 C 9.878906 -8.707031 10.28125 -9.257812 10.75 -9.59375 C 11.21875 -9.925781 11.816406 -10.09375 12.546875 -10.09375 C 13.503906 -10.09375 14.238281 -9.765625 14.75 -9.109375 C 15.257812 -8.453125 15.515625 -7.515625 15.515625 -6.296875 L 15.515625 0 L 12.953125 0 L 12.953125 -5.5625 C 12.953125 -7.300781 12.453125 -8.171875 11.453125 -8.171875 C 10.953125 -8.171875 10.539062 -7.925781 10.21875 -7.4375 C 9.894531 -6.945312 9.722656 -6.273438 9.703125 -5.421875 L 9.703125 0 Z M 7.140625 0 "/></g></g></g><g fill="#eeeeee" fill-opacity="1"><g transform="translate(198.778266, 24.376773)"><g><path d="M 10.6875 -5 C 10.6875 -3.34375 10.351562 -2.0625 9.6875 -1.15625 C 9.03125 -0.257812 8.097656 0.1875 6.890625 0.1875 C 6.191406 0.1875 5.582031 0.0351562 5.0625 -0.265625 C 4.550781 -0.566406 4.15625 -1.003906 3.875 -1.578125 L 3.828125 -1.578125 C 3.859375 -1.390625 3.875 -0.832031 3.875 0.09375 L 3.875 3.890625 L 1.3125 3.890625 L 1.3125 -7.625 C 1.3125 -8.5625 1.285156 -9.320312 1.234375 -9.90625 L 3.734375 -9.90625 C 3.765625 -9.789062 3.789062 -9.570312 3.8125 -9.25 C 3.832031 -8.925781 3.84375 -8.609375 3.84375 -8.296875 L 3.875 -8.296875 C 4.457031 -9.503906 5.515625 -10.109375 7.046875 -10.109375 C 8.203125 -10.109375 9.097656 -9.664062 9.734375 -8.78125 C 10.367188 -7.894531 10.6875 -6.632812 10.6875 -5 Z M 8 -5 C 8 -7.21875 7.316406 -8.328125 5.953125 -8.328125 C 5.273438 -8.328125 4.753906 -8.023438 4.390625 -7.421875 C 4.023438 -6.828125 3.84375 -5.992188 3.84375 -4.921875 C 3.84375 -3.859375 4.023438 -3.035156 4.390625 -2.453125 C 4.753906 -1.867188 5.269531 -1.578125 5.9375 -1.578125 C 7.3125 -1.578125 8 -2.71875 8 -5 Z M 8 -5 "/></g></g></g><g fill="#eeeeee" fill-opacity="1"><g transform="translate(210.229163, 24.376773)"><g><path d="M 1.3125 0 L 1.3125 -13.59375 L 3.875 -13.59375 L 3.875 0 Z M 1.3125 0 "/></g></g></g><g fill="#eeeeee" fill-opacity="1"><g transform="translate(215.437448, 24.376773)"><g><path d="M 10.71875 -4.96875 C 10.71875 -3.351562 10.269531 -2.085938 9.375 -1.171875 C 8.488281 -0.265625 7.257812 0.1875 5.6875 0.1875 C 4.144531 0.1875 2.929688 -0.269531 2.046875 -1.1875 C 1.171875 -2.101562 0.734375 -3.363281 0.734375 -4.96875 C 0.734375 -6.5625 1.171875 -7.8125 2.046875 -8.71875 C 2.929688 -9.632812 4.160156 -10.09375 5.734375 -10.09375 C 7.359375 -10.09375 8.59375 -9.648438 9.4375 -8.765625 C 10.289062 -7.878906 10.71875 -6.613281 10.71875 -4.96875 Z M 8.03125 -4.96875 C 8.03125 -6.144531 7.835938 -7 7.453125 -7.53125 C 7.066406 -8.0625 6.507812 -8.328125 5.78125 -8.328125 C 4.21875 -8.328125 3.4375 -7.207031 3.4375 -4.96875 C 3.4375 -3.863281 3.625 -3.019531 4 -2.4375 C 4.382812 -1.863281 4.9375 -1.578125 5.65625 -1.578125 C 7.238281 -1.578125 8.03125 -2.707031 8.03125 -4.96875 Z M 8.03125 -4.96875 "/></g></g></g><g fill="#eeeeee" fill-opacity="1"><g transform="translate(226.888346, 24.376773)"><g><path d="M 2.59375 3.890625 C 1.976562 3.890625 1.4375 3.847656 0.96875 3.765625 L 0.96875 1.9375 C 1.289062 1.988281 1.585938 2.015625 1.859375 2.015625 C 2.222656 2.015625 2.523438 1.957031 2.765625 1.84375 C 3.003906 1.726562 3.21875 1.535156 3.40625 1.265625 C 3.601562 0.992188 3.820312 0.539062 4.0625 -0.09375 L 0.140625 -9.90625 L 2.859375 -9.90625 L 4.421875 -5.265625 C 4.660156 -4.597656 4.96875 -3.578125 5.34375 -2.203125 L 5.578125 -3.078125 L 6.171875 -5.234375 L 7.640625 -9.90625 L 10.328125 -9.90625 L 6.40625 0.515625 C 5.882812 1.785156 5.335938 2.664062 4.765625 3.15625 C 4.203125 3.644531 3.476562 3.890625 2.59375 3.890625 Z M 2.59375 3.890625 "/></g></g></g><g fill="#eeeeee" fill-opacity="1"><g transform="translate(237.314064, 24.376773)"><g><path d="M 5.359375 0.1875 C 3.867188 0.1875 2.722656 -0.253906 1.921875 -1.140625 C 1.128906 -2.023438 0.734375 -3.3125 0.734375 -5 C 0.734375 -6.632812 1.140625 -7.890625 1.953125 -8.765625 C 2.765625 -9.648438 3.914062 -10.09375 5.40625 -10.09375 C 6.820312 -10.09375 7.90625 -9.617188 8.65625 -8.671875 C 9.40625 -7.734375 9.78125 -6.351562 9.78125 -4.53125 L 9.78125 -4.453125 L 3.4375 -4.453125 C 3.4375 -3.492188 3.613281 -2.765625 3.96875 -2.265625 C 4.320312 -1.773438 4.832031 -1.53125 5.5 -1.53125 C 6.40625 -1.53125 6.976562 -1.925781 7.21875 -2.71875 L 9.640625 -2.515625 C 8.941406 -0.710938 7.515625 0.1875 5.359375 0.1875 Z M 5.359375 -8.46875 C 4.753906 -8.46875 4.289062 -8.253906 3.96875 -7.828125 C 3.644531 -7.410156 3.472656 -6.820312 3.453125 -6.0625 L 7.296875 -6.0625 C 7.242188 -6.863281 7.050781 -7.460938 6.71875 -7.859375 C 6.382812 -8.265625 5.929688 -8.46875 5.359375 -8.46875 Z M 5.359375 -8.46875 "/></g></g></g><g fill="#eeeeee" fill-opacity="1"><g transform="translate(247.739781, 24.376773)"><g><path d="M 5.359375 0.1875 C 3.867188 0.1875 2.722656 -0.253906 1.921875 -1.140625 C 1.128906 -2.023438 0.734375 -3.3125 0.734375 -5 C 0.734375 -6.632812 1.140625 -7.890625 1.953125 -8.765625 C 2.765625 -9.648438 3.914062 -10.09375 5.40625 -10.09375 C 6.820312 -10.09375 7.90625 -9.617188 8.65625 -8.671875 C 9.40625 -7.734375 9.78125 -6.351562 9.78125 -4.53125 L 9.78125 -4.453125 L 3.4375 -4.453125 C 3.4375 -3.492188 3.613281 -2.765625 3.96875 -2.265625 C 4.320312 -1.773438 4.832031 -1.53125 5.5 -1.53125 C 6.40625 -1.53125 6.976562 -1.925781 7.21875 -2.71875 L 9.640625 -2.515625 C 8.941406 -0.710938 7.515625 0.1875 5.359375 0.1875 Z M 5.359375 -8.46875 C 4.753906 -8.46875 4.289062 -8.253906 3.96875 -7.828125 C 3.644531 -7.410156 3.472656 -6.820312 3.453125 -6.0625 L 7.296875 -6.0625 C 7.242188 -6.863281 7.050781 -7.460938 6.71875 -7.859375 C 6.382812 -8.265625 5.929688 -8.46875 5.359375 -8.46875 Z M 5.359375 -8.46875 "/></g></g></g></svg>